Sumana-Regular.ufo
<glyph name="slash" format="1">
  <advance width="690"/>
  <unicode hex="002F"/>
  <outline>
    <contour>
      <point x="14" y="-237" type="line"/>
      <point x="81" y="-279" type="line"/>
      <point x="677" y="721" type="line"/>
      <point x="603" y="768" type="line"/>
    </contour>
  </outline>
</glyph>
<glyph name="twosuperior" format="1">
  <advance width="385"/>
  <unicode hex="00B2"/>
  <outline>
    <contour>
      <point x="109" y="722"/>
      <point x="63" y="661"/>
      <point x="63" y="620" type="curve"/>
      <point x="63" y="601"/>
      <point x="76" y="582"/>
      <point x="96" y="582" type="curve"/>
      <point x="121" y="581"/>
      <point x="131" y="605"/>
      <point x="131" y="617" type="curve"/>
      <point x="131" y="626"/>
      <point x="128" y="636"/>
      <point x="123" y="642" type="curve"/>
      <point x="129" y="659"/>
      <point x="149" y="674"/>
      <point x="179" y="674" type="curve"/>
      <point x="217" y="674"/>
      <point x="237" y="649"/>
      <point x="237" y="608" type="curve"/>
      <point x="237" y="581"/>
      <point x="230" y="542"/>
      <point x="175" y="497" type="curve"/>
      <point x="112" y="445"/>
      <point x="53" y="389"/>
      <point x="56" y="300" type="curve"/>
      <point x="322" y="300" type="line"/>
      <point x="326" y="406" type="line"/>
      <point x="291" y="406" type="line"/>
      <point x="294" y="360"/>
      <point x="260" y="365"/>
      <point x="200" y="366" type="curve"/>
      <point x="123" y="368" type="line"/>
      <point x="133" y="393"/>
      <point x="157" y="418"/>
      <point x="198" y="449" type="curve"/>
      <point x="301" y="524"/>
      <point x="317" y="569"/>
      <point x="317" y="609" type="curve"/>
      <point x="317" y="687"/>
      <point x="255" y="722"/>
      <point x="192" y="722" type="curve"/>
    </contour>
  </outline>
</glyph>
<glyph name="lVocalic-deva" format="1">
  <advance width="685"/>
  <unicode hex="090C"/>
  <note>
    dVocalicL
  </note>
  <outline>
    <contour>
      <point x="352" y="318"/>
      <point x="416" y="365"/>
      <point x="465" y="362" type="curve" smooth="yes"/>
      <point x="521" y="360"/>
      <point x="556" y="291"/>
      <point x="486" y="172" type="curve" smooth="yes"/>
      <point x="442" y="97"/>
      <point x="421" y="24"/>
      <point x="482" y="-32" type="curve" smooth="yes"/>
      <point x="537" y="-83"/>
      <point x="633" y="-85"/>
      <point x="706" y="-2" type="curve"/>
      <point x="661" y="48" type="line"/>
      <point x="599" y="-24"/>
      <point x="547" y="-37"/>
      <point x="521" y="-15" type="curve" smooth="yes"/>
      <point x="495" y="7"/>
      <point x="508" y="53"/>
      <point x="560" y="131" type="curve" smooth="yes"/>
      <point x="636" y="245"/>
      <point x="611" y="420"/>
      <point x="429" y="420" type="curve" smooth="yes"/>
      <point x="331" y="420"/>
      <point x="263" y="331"/>
      <point x="249" y="225" type="curve"/>
      <point x="327" y="211" type="line"/>
    </contour>
    <contour>
      <point x="-30" y="570" type="line"/>
      <point x="-2" y="506" type="line"/>
      <point x="710" y="506" type="line"/>
      <point x="682" y="570" type="line"/>
    </contour>
    <contour>
      <point x="427" y="506" type="line"/>
      <point x="421" y="481"/>
      <point x="420" y="461"/>
      <point x="420" y="426" type="curve" smooth="yes"/>
      <point x="420" y="391" type="line"/>
      <point x="499" y="387" type="line"/>
      <point x="499" y="441" type="line" smooth="yes"/>
      <point x="499" y="477"/>
      <point x="512" y="506"/>
      <point x="548" y="506" type="curve"/>
    </contour>
    <contour>
      <point x="287" y="384"/>
      <point x="235" y="419"/>
      <point x="165" y="419" type="curve" smooth="yes"/>
      <point x="73" y="419"/>
      <point x="30" y="362"/>
      <point x="30" y="276" type="curve" smooth="yes"/>
      <point x="30" y="170"/>
      <point x="115" y="60"/>
      <point x="225" y="2" type="curve"/>
      <point x="246" y="41" type="line"/>
      <point x="165" y="96"/>
      <point x="124" y="170"/>
      <point x="124" y="266" type="curve" smooth="yes"/>
      <point x="124" y="319"/>
      <point x="156" y="359"/>
      <point x="196" y="359" type="curve" smooth="yes"/>
      <point x="235" y="359"/>
      <point x="273" y="344"/>
      <point x="311" y="318" type="curve"/>
      <point x="337" y="342" type="line"/>
    </contour>
    <contour>
      <point x="468" y="570" type="move" name="top"/>
    </contour>
  </outline>
</glyph>
<glyph name="gha-deva" format="1">
  <advance width="574"/>
  <unicode hex="0918"/>
  <note>
    dGha
  </note>
  <outline>
    <contour>
      <point x="-30" y="570" type="line"/>
      <point x="-2" y="506" type="line"/>
      <point x="604" y="506" type="line"/>
      <point x="576" y="570" type="line"/>
    </contour>
    <contour>
      <point x="180" y="369"/>
      <point x="100" y="306"/>
      <point x="100" y="220" type="curve" smooth="yes"/>
      <point x="100" y="143"/>
      <point x="165" y="65"/>
      <point x="276" y="71" type="curve" smooth="yes"/>
      <point x="370" y="76"/>
      <point x="441" y="138"/>
      <point x="487" y="203" type="curve"/>
      <point x="427" y="261" type="line"/>
      <point x="382" y="175"/>
      <point x="324" y="118"/>
      <point x="253" y="118" type="curve" smooth="yes"/>
      <point x="129" y="118"/>
      <point x="163" y="292"/>
      <point x="292" y="320" type="curve"/>
      <point x="270" y="387" type="line"/>
    </contour>
    <contour>
      <point x="204" y="564"/>
      <point x="69" y="541"/>
      <point x="69" y="424" type="curve" smooth="yes"/>
      <point x="69" y="369"/>
      <point x="99" y="326"/>
      <point x="160" y="296" type="curve"/>
      <point x="194" y="314" type="line"/>
      <point x="153" y="340"/>
      <point x="134" y="371"/>
      <point x="134" y="400" type="curve" smooth="yes"/>
      <point x="134" y="461"/>
      <point x="179" y="504"/>
      <point x="285" y="506" type="curve"/>
      <point x="284" y="564" type="line"/>
    </contour>
    <component base="stem-deva" xOffset="79"/>
    <contour>
      <point x="116" y="0" type="move" name="nukta"/>
    </contour>
    <contour>
      <point x="468" y="0" type="move" name="bottom"/>
    </contour>
    <contour>
      <point x="468" y="570" type="move" name="top"/>
    </contour>
  </outline>
</glyph>
<glyph name="ca-deva" format="1">
  <advance width="594"/>
  <unicode hex="091A"/>
  <note>
    dCa
  </note>
  <outline>
    <contour>
      <point x="-30" y="570" type="line"/>
      <point x="-2" y="506" type="line"/>
      <point x="624" y="506" type="line"/>
      <point x="596" y="570" type="line"/>
    </contour>
    <contour>
      <point x="204" y="371"/>
      <point x="111" y="303"/>
      <point x="111" y="219" type="curve" smooth="yes"/>
      <point x="111" y="142"/>
      <point x="188" y="82"/>
      <point x="285" y="82" type="curve" smooth="yes"/>
      <point x="345" y="82"/>
      <point x="379" y="105"/>
      <point x="427" y="136" type="curve"/>
      <point x="427" y="276" type="line"/>
      <point x="389" y="168"/>
      <point x="311" y="129"/>
      <point x="253" y="129" type="curve" smooth="yes"/>
      <point x="205" y="129"/>
      <point x="183" y="160"/>
      <point x="183" y="197" type="curve" smooth="yes"/>
      <point x="183" y="257"/>
      <point x="243" y="338"/>
      <point x="371" y="344" type="curve"/>
      <point x="353" y="371" type="line"/>
    </contour>
    <contour>
      <point x="55" y="402" type="line"/>
      <point x="83" y="338" type="line"/>
      <point x="371" y="344" type="line"/>
      <point x="344" y="402" type="line"/>
    </contour>
    <component base="stem-deva" xOffset="70"/>
    <contour>
      <point x="111" y="0" type="move" name="nukta"/>
    </contour>
    <contour>
      <point x="456" y="0" type="move" name="bottom"/>
    </contour>
    <contour>
      <point x="456" y="570" type="move" name="top"/>
    </contour>
  </outline>
</glyph>
<glyph name="cha-deva" format="1">
  <advance width="644"/>
  <unicode hex="091B"/>
  <note>
    dCha
  </note>
  <outline>
    <contour>
      <point x="412" y="414"/>
      <point x="363" y="379"/>
      <point x="363" y="314" type="curve" smooth="yes"/>
      <point x="363" y="218"/>
      <point x="464" y="161"/>
      <point x="560" y="134" type="curve"/>
      <point x="575" y="164" type="line"/>
      <point x="483" y="207"/>
      <point x="446" y="256"/>
      <point x="446" y="311" type="curve" smooth="yes"/>
      <point x="446" y="351"/>
      <point x="465" y="369"/>
      <point x="492" y="369" type="curve" smooth="yes"/>
      <point x="530" y="369"/>
      <point x="564" y="333"/>
      <point x="564" y="260" type="curve" smooth="yes"/>
      <point x="564" y="122"/>
      <point x="407" y="36"/>
      <point x="288" y="36" type="curve" smooth="yes"/>
      <point x="202" y="36"/>
      <point x="158" y="69"/>
      <point x="158" y="120" type="curve" smooth="yes"/>
      <point x="158" y="174"/>
      <point x="213" y="212"/>
      <point x="312" y="197" type="curve"/>
      <point x="303" y="255" type="line"/>
      <point x="171" y="278"/>
      <point x="105" y="226"/>
      <point x="105" y="144" type="curve" smooth="yes"/>
      <point x="105" y="64"/>
      <point x="176" y="-26"/>
      <point x="318" y="-26" type="curve" smooth="yes"/>
      <point x="473" y="-26"/>
      <point x="633" y="86"/>
      <point x="633" y="244" type="curve" smooth="yes"/>
      <point x="633" y="349"/>
      <point x="565" y="414"/>
      <point x="475" y="414" type="curve" smooth="yes"/>
    </contour>
    <contour>
      <point x="94" y="461"/>
      <point x="40" y="402"/>
      <point x="40" y="337" type="curve" smooth="yes"/>
      <point x="40" y="283"/>
      <point x="78" y="224"/>
      <point x="158" y="192" type="curve"/>
      <point x="181" y="228" type="line"/>
      <point x="120" y="250"/>
      <point x="94" y="274"/>
      <point x="94" y="317" type="curve" smooth="yes"/>
      <point x="94" y="374"/>
      <point x="173" y="425"/>
      <point x="289" y="388" type="curve"/>
      <point x="270" y="450" type="line"/>
      <point x="243" y="458"/>
      <point x="219" y="461"/>
      <point x="194" y="461" type="curve" smooth="yes"/>
    </contour>
    <contour>
      <point x="-30" y="570" type="line"/>
      <point x="-2" y="506" type="line"/>
      <point x="674" y="506" type="line"/>
      <point x="646" y="570" type="line"/>
    </contour>
    <component base="stem-tiny-deva" xOffset="119"/>
    <contour>
      <point x="43" y="-20" type="move" name="nukta"/>
    </contour>
    <contour>
      <point x="321" y="-12" type="move" name="bottom"/>
    </contour>
    <contour>
      <point x="510" y="570" type="move" name="top"/>
    </contour>
  </outline>
</glyph>
<glyph name="jha-deva" format="1">
  <advance width="736"/>
  <unicode hex="091D"/>
  <note>
    dJha
  </note>
  <outline>
    <contour>
      <point x="208" y="418" type="line" smooth="yes"/>
      <point x="138" y="421"/>
      <point x="77" y="377"/>
      <point x="77" y="312" type="curve" smooth="yes"/>
      <point x="77" y="224"/>
      <point x="161" y="165"/>
      <point x="232" y="189" type="curve" smooth="yes"/>
      <point x="306" y="214"/>
      <point x="381" y="214"/>
      <point x="381" y="155" type="curve" smooth="yes"/>
      <point x="381" y="70"/>
      <point x="311" y="11"/>
      <point x="220" y="11" type="curve" smooth="yes"/>
      <point x="178" y="11"/>
      <point x="142" y="24"/>
      <point x="113" y="69" type="curve"/>
      <point x="73" y="41" type="line"/>
      <point x="133" y="-14"/>
      <point x="209" y="-44"/>
      <point x="279" y="-44" type="curve" smooth="yes"/>
      <point x="379" y="-44"/>
      <point x="464" y="18"/>
      <point x="464" y="150" type="curve" smooth="yes"/>
      <point x="464" y="222"/>
      <point x="411" y="296"/>
      <point x="325" y="296" type="curve" smooth="yes"/>
      <point x="261" y="296"/>
      <point x="227" y="259"/>
      <point x="180" y="259" type="curve" smooth="yes"/>
      <point x="155" y="259"/>
      <point x="142" y="271"/>
      <point x="142" y="291" type="curve" smooth="yes"/>
      <point x="142" y="317"/>
      <point x="168" y="349"/>
      <point x="221" y="351" type="curve" smooth="yes"/>
      <point x="422" y="359" type="line"/>
      <point x="354" y="411" type="line"/>
    </contour>
    <contour>
      <point x="56" y="133"/>
      <point x="28" y="116"/>
      <point x="28" y="74" type="curve" smooth="yes"/>
      <point x="28" y="6"/>
      <point x="93" y="-92"/>
      <point x="157" y="-186" type="curve"/>
      <point x="220" y="-132" type="line"/>
      <point x="168" y="-89"/>
      <point x="139" y="-58"/>
      <point x="108" y="3" type="curve"/>
      <point x="131" y="16"/>
      <point x="148" y="33"/>
      <point x="148" y="68" type="curve" smooth="yes"/>
      <point x="148" y="110"/>
      <point x="118" y="133"/>
      <point x="86" y="133" type="curve" smooth="yes"/>
    </contour>
    <contour>
      <point x="325" y="296" type="line"/>
      <point x="333" y="230" type="line"/>
      <point x="596" y="250" type="line"/>
      <point x="596" y="296" type="line"/>
    </contour>
    <contour>
      <point x="-30" y="570" type="line"/>
      <point x="-2" y="506" type="line"/>
      <point x="766" y="506" type="line"/>
      <point x="738" y="570" type="line"/>
    </contour>
    <contour>
      <point x="350" y="506" type="line"/>
      <point x="344" y="481"/>
      <point x="343" y="461"/>
      <point x="343" y="426" type="curve" smooth="yes"/>
      <point x="343" y="409" type="line"/>
      <point x="422" y="359" type="line"/>
      <point x="422" y="441" type="line" smooth="yes"/>
      <point x="422" y="477"/>
      <point x="435" y="506"/>
      <point x="471" y="506" type="curve"/>
    </contour>
    <component base="stem-deva" xOffset="209"/>
    <contour>
      <point x="32" y="-149" type="move" name="nukta"/>
    </contour>
    <contour>
      <point x="597" y="0" type="move" name="bottom"/>
    </contour>
    <contour>
      <point x="607" y="570" type="move" name="top"/>
    </contour>
  </outline>
</glyph>
<glyph name="nya-deva" format="1">
  <advance width="687"/>
  <unicode hex="091E"/>
  <note>
    dNya
  </note>
  <outline>
    <contour>
      <point x="-30" y="570" type="line"/>
      <point x="-2" y="506" type="line"/>
      <point x="717" y="506" type="line"/>
      <point x="689" y="570" type="line"/>
    </contour>
    <contour>
      <point x="440" y="381"/>
      <point x="374" y="435"/>
      <point x="298" y="435" type="curve" smooth="yes"/>
      <point x="254" y="435"/>
      <point x="206" y="417"/>
      <point x="166" y="383" type="curve"/>
      <point x="210" y="318" type="line"/>
      <point x="245" y="341"/>
      <point x="283" y="353"/>
      <point x="317" y="353" type="curve" smooth="yes"/>
      <point x="363" y="353"/>
      <point x="399" y="329"/>
      <point x="399" y="275" type="curve" smooth="yes"/>
      <point x="399" y="140"/>
      <point x="152" y="145"/>
      <point x="54" y="290" type="curve"/>
      <point x="22" y="268" type="line"/>
      <point x="133" y="32"/>
      <point x="446" y="20"/>
      <point x="442" y="266" type="curve" smooth="yes"/>
    </contour>
    <contour>
      <point x="556" y="326" type="line"/>
      <point x="413" y="326" type="line"/>
      <point x="414" y="262" type="line"/>
      <point x="556" y="269" type="line"/>
    </contour>
    <component base="stem-deva" xOffset="176"/>
    <contour>
      <point x="120" y="0" type="move" name="nukta"/>
    </contour>
    <contour>
      <point x="569" y="0" type="move" name="bottom"/>
    </contour>
    <contour>
      <point x="571" y="570" type="move" name="top"/>
    </contour>
  </outline>
</glyph>
<glyph name="dda-deva" format="1">
  <advance width="509"/>
  <unicode hex="0921"/>
  <note>
    dDda
  </note>
  <outline>
    <contour>
      <point x="32" y="193" type="line"/>
      <point x="86" y="80"/>
      <point x="167" y="-15"/>
      <point x="300" y="-15" type="curve" smooth="yes"/>
      <point x="420" y="-15"/>
      <point x="455" y="63"/>
      <point x="454" y="141" type="curve" smooth="yes"/>
      <point x="453" y="228"/>
      <point x="390" y="289"/>
      <point x="328" y="289" type="curve" smooth="yes"/>
      <point x="274" y="289"/>
      <point x="234" y="260"/>
      <point x="196" y="260" type="curve" smooth="yes"/>
      <point x="165" y="260"/>
      <point x="149" y="282"/>
      <point x="149" y="308" type="curve" smooth="yes"/>
      <point x="149" y="341"/>
      <point x="175" y="379"/>
      <point x="227" y="381" type="curve" smooth="yes"/>
      <point x="415" y="387" type="line"/>
      <point x="415" y="445" type="line"/>
      <point x="198" y="445" type="line" smooth="yes"/>
      <point x="138" y="445"/>
      <point x="92" y="410"/>
      <point x="94" y="349" type="curve" smooth="yes"/>
      <point x="97" y="259"/>
      <point x="166" y="193"/>
      <point x="218" y="193" type="curve" smooth="yes"/>
      <point x="264" y="193"/>
      <point x="317" y="221"/>
      <point x="358" y="220" type="curve" smooth="yes"/>
      <point x="389" y="220"/>
      <point x="408" y="193"/>
      <point x="408" y="156" type="curve" smooth="yes"/>
      <point x="408" y="111"/>
      <point x="368" y="61"/>
      <point x="273" y="61" type="curve" smooth="yes"/>
      <point x="201" y="61"/>
      <point x="133" y="90"/>
      <point x="64" y="215" type="curve"/>
    </contour>
    <contour>
      <point x="539" y="506" type="line"/>
      <point x="511" y="570" type="line"/>
      <point x="-30" y="570" type="line"/>
      <point x="-2" y="506" type="line"/>
    </contour>
    <contour>
      <point x="344" y="506" type="line"/>
      <point x="338" y="481"/>
      <point x="337" y="461"/>
      <point x="337" y="426" type="curve" smooth="yes"/>
      <point x="337" y="385" type="line"/>
      <point x="416" y="387" type="line"/>
      <point x="416" y="441" type="line" smooth="yes"/>
      <point x="416" y="477"/>
      <point x="429" y="506"/>
      <point x="465" y="506" type="curve"/>
    </contour>
    <contour>
      <point x="-13" y="24" type="move" name="nukta"/>
    </contour>
    <contour>
      <point x="300" y="0" type="move" name="bottom"/>
    </contour>
    <contour>
      <point x="377" y="570" type="move" name="top"/>
    </contour>
  </outline>
</glyph>
<glyph name="ta-deva" format="1">
  <advance width="507"/>
  <unicode hex="0924"/>
  <note>
    dTa
  </note>
  <outline>
    <contour>
      <point x="387" y="333" type="line"/>
      <point x="360" y="397" type="line"/>
      <point x="180" y="397" type="line" smooth="yes"/>
      <point x="60" y="397"/>
      <point x="4" y="335"/>
      <point x="4" y="256" type="curve" smooth="yes"/>
      <point x="4" y="169"/>
      <point x="72" y="61"/>
      <point x="197" y="-8" type="curve"/>
      <point x="218" y="31" type="line"/>
      <point x="143" y="80"/>
      <point x="99" y="157"/>
      <point x="99" y="235" type="curve" smooth="yes"/>
      <point x="99" y="290"/>
      <point x="129" y="333"/>
      <point x="221" y="333" type="curve" smooth="yes"/>
    </contour>
    <contour>
      <point x="537" y="506" type="line"/>
      <point x="509" y="570" type="line"/>
      <point x="-30" y="570" type="line"/>
      <point x="-2" y="506" type="line"/>
    </contour>
    <component base="stem-deva" xOffset="-14"/>
    <contour>
      <point x="-28" y="0" type="move" name="nukta"/>
    </contour>
    <contour>
      <point x="370" y="0" type="move" name="bottom"/>
    </contour>
    <contour>
      <point x="370" y="580" type="move" name="top"/>
    </contour>
  </outline>
</glyph>
<glyph name="pha-deva" format="1">
  <advance width="770"/>
  <unicode hex="092B"/>
  <note>
    dPha
  </note>
  <outline>
    <contour>
      <point x="-30" y="570" type="line"/>
      <point x="-2" y="506" type="line"/>
      <point x="800" y="506" type="line"/>
      <point x="772" y="570" type="line"/>
    </contour>
    <contour>
      <point x="561" y="410"/>
      <point x="503" y="391"/>
      <point x="433" y="320" type="curve"/>
      <point x="443" y="238" type="line"/>
      <point x="505" y="305"/>
      <point x="576" y="344"/>
      <point x="629" y="344" type="curve" smooth="yes"/>
      <point x="672" y="344"/>
      <point x="693" y="320"/>
      <point x="693" y="284" type="curve" smooth="yes"/>
      <point x="693" y="232"/>
      <point x="647" y="155"/>
      <point x="562" y="98" type="curve"/>
      <point x="610" y="26" type="line"/>
      <point x="698" y="73"/>
      <point x="744" y="172"/>
      <point x="744" y="258" type="curve" smooth="yes"/>
      <point x="744" y="340"/>
      <point x="701" y="410"/>
      <point x="613" y="410" type="curve" smooth="yes"/>
    </contour>
    <contour>
      <point x="403" y="305" type="line"/>
      <point x="356" y="246"/>
      <point x="299" y="199"/>
      <point x="229" y="199" type="curve" smooth="yes"/>
      <point x="190" y="199"/>
      <point x="154" y="218"/>
      <point x="154" y="275" type="curve" smooth="yes"/>
      <point x="154" y="441" type="line" smooth="yes"/>
      <point x="154" y="477"/>
      <point x="167" y="506"/>
      <point x="203" y="506" type="curve"/>
      <point x="82" y="506" type="line"/>
      <point x="78" y="480"/>
      <point x="75" y="461"/>
      <point x="75" y="426" type="curve" smooth="yes"/>
      <point x="75" y="385" type="line" smooth="yes"/>
      <point x="75" y="239"/>
      <point x="136" y="141"/>
      <point x="255" y="141" type="curve" smooth="yes"/>
      <point x="321" y="141"/>
      <point x="376" y="180"/>
      <point x="429" y="232" type="curve"/>
    </contour>
    <component base="stem-deva" xOffset="17"/>
    <contour>
      <point x="113" y="104" type="move" name="nukta"/>
    </contour>
    <contour>
      <point x="409" y="0" type="move" name="bottom"/>
    </contour>
    <contour>
      <point x="409" y="570" type="move" name="top"/>
    </contour>
  </outline>
</glyph>
<glyph name="sha-deva" format="1">
  <advance width="678"/>
  <unicode hex="0936"/>
  <note>
    dSha
  </note>
  <outline>
    <contour>
      <point x="162" y="60"/>
      <point x="224" y="-9"/>
      <point x="306" y="-70" type="curve"/>
      <point x="375" y="-2" type="line"/>
      <point x="290" y="40"/>
      <point x="204" y="78"/>
      <point x="149" y="194" type="curve"/>
      <point x="100" y="185" type="line"/>
    </contour>
    <contour>
      <point x="299" y="332" type="line"/>
      <point x="212" y="361"/>
      <point x="180" y="404"/>
      <point x="180" y="463" type="curve" smooth="yes"/>
      <point x="180" y="510"/>
      <point x="202" y="534"/>
      <point x="227" y="534" type="curve" smooth="yes"/>
      <point x="257" y="534"/>
      <point x="290" y="498"/>
      <point x="290" y="413" type="curve" smooth="yes"/>
      <point x="290" y="280"/>
      <point x="207" y="179"/>
      <point x="157" y="215" type="curve"/>
      <point x="175" y="233"/>
      <point x="171" y="309"/>
      <point x="101" y="309" type="curve" smooth="yes"/>
      <point x="71" y="309"/>
      <point x="50" y="285"/>
      <point x="50" y="252" type="curve" smooth="yes"/>
      <point x="50" y="200"/>
      <point x="104" y="154"/>
      <point x="161" y="154" type="curve" smooth="yes"/>
      <point x="244" y="154"/>
      <point x="370" y="257"/>
      <point x="370" y="409" type="curve" smooth="yes"/>
      <point x="370" y="509"/>
      <point x="301" y="570"/>
      <point x="214" y="570" type="curve" smooth="yes"/>
      <point x="137" y="570"/>
      <point x="98" y="529"/>
      <point x="98" y="469" type="curve" smooth="yes"/>
      <point x="98" y="378"/>
      <point x="200" y="314"/>
      <point x="290" y="294" type="curve"/>
    </contour>
    <contour>
      <point x="380" y="570" type="line"/>
      <point x="408" y="506" type="line"/>
      <point x="708" y="506" type="line"/>
      <point x="680" y="570" type="line"/>
    </contour>
    <component base="stem-deva" xOffset="155"/>
    <contour>
      <point x="113" y="-34" type="move" name="nukta"/>
    </contour>
    <contour>
      <point x="545" y="0" type="move" name="bottom"/>
    </contour>
    <contour>
      <point x="545" y="570" type="move" name="top"/>
    </contour>
  </outline>
</glyph>
<glyph name="iiMatra-deva" format="1">
  <advance width="272"/>
  <unicode hex="0940"/>
  <note>
    dMatraIi
  </note>
  <outline>
    <contour>
      <point x="-38" y="570" type="line"/>
      <point x="-10" y="506" type="line"/>
      <point x="302" y="506" type="line"/>
      <point x="274" y="570" type="line"/>
    </contour>
    <contour>
      <point x="134" y="684"/>
      <point x="40" y="835"/>
      <point x="-100" y="835" type="curve" smooth="yes"/>
      <point x="-221" y="835"/>
      <point x="-288" y="722"/>
      <point x="-170" y="617" type="curve"/>
      <point x="-148" y="641" type="line"/>
      <point x="-201" y="722"/>
      <point x="-149" y="770"/>
      <point x="-86" y="770" type="curve" smooth="yes"/>
      <point x="-8" y="770"/>
      <point x="67" y="683"/>
      <point x="115" y="538" type="curve"/>
      <point x="162" y="538" type="line"/>
    </contour>
    <component base="stem-deva" xOffset="-256"/>
    <contour>
      <point x="-150" y="570" type="move" name="iimatra"/>
    </contour>
    <contour>
      <point x="125" y="570" type="move" name="top"/>
    </contour>
  </outline>
</glyph>
<glyph name="eMatra-deva" format="1">
  <advance width="501"/>
  <unicode hex="0947"/>
  <outline>
    <contour>
      <point x="448" y="555" type="line"/>
      <point x="381" y="739"/>
      <point x="213" y="837"/>
      <point x="112" y="837" type="curve" smooth="yes"/>
      <point x="66" y="837"/>
      <point x="35" y="818"/>
      <point x="35" y="786" type="curve" smooth="yes"/>
      <point x="35" y="755"/>
      <point x="65" y="736"/>
      <point x="93" y="744" type="curve" smooth="yes"/>
      <point x="187" y="772"/>
      <point x="307" y="737"/>
      <point x="402" y="555" type="curve"/>
    </contour>
    <contour>
      <point x="428" y="555" type="move" name="_top"/>
    </contour>
  </outline>
</glyph>
<glyph name="ueMatra-deva" format="1">
  <advance width="488"/>
  <unicode hex="0956"/>
  <outline>
    <contour>
      <point x="50" y="-83" type="line"/>
      <point x="113" y="-158"/>
      <point x="190" y="-190"/>
      <point x="256" y="-190" type="curve" smooth="yes"/>
      <point x="320" y="-190"/>
      <point x="383" y="-159"/>
      <point x="419" y="-120" type="curve" smooth="yes"/>
      <point x="437" y="-101"/>
      <point x="441" y="-67"/>
      <point x="421" y="-51" type="curve" smooth="yes"/>
      <point x="403" y="-35"/>
      <point x="373" y="-35"/>
      <point x="356" y="-56" type="curve" smooth="yes"/>
      <point x="315" y="-107"/>
      <point x="268" y="-130"/>
      <point x="220" y="-130" type="curve" smooth="yes"/>
      <point x="170" y="-130"/>
      <point x="120" y="-104"/>
      <point x="78" y="-58" type="curve"/>
    </contour>
  </outline>
</glyph>
<glyph name="bba-deva" format="1">
  <advance width="555"/>
  <unicode hex="097F"/>
  <note>
    dBba
  </note>
  <outline>
    <contour>
      <point x="454" y="-64" type="line"/>
      <point x="454" y="-10" type="line"/>
      <point x="31" y="0" type="line"/>
      <point x="59" y="-64" type="line"/>
    </contour>
    <contour>
      <point x="156" y="386" type="line"/>
      <point x="131" y="348" type="line"/>
      <point x="338" y="127" type="line"/>
      <point x="362" y="162" type="line"/>
    </contour>
    <component base="va-deva"/>
  </outline>
</glyph>
<glyph name="aiMatra_reph_anusvara-deva" format="1">
  <advance width="588"/>
  <outline>
    <component base="anusvara-deva" xOffset="345" yOffset="41" xScale="0.850" yScale="0.850"/>
    <component base="aiMatra_reph-deva"/>
    <contour>
      <point x="370" y="555" type="move" name="_top"/>
    </contour>
  </outline>
</glyph>
<glyph name="b_la-deva.loclMAR" format="1">
  <advance width="555"/>
  <note>
    dBLa.MAR
  </note>
  <outline>
    <contour>
      <point x="295" y="54"/>
      <point x="239" y="94"/>
      <point x="163" y="94" type="curve" smooth="yes"/>
      <point x="65" y="94"/>
      <point x="34" y="25"/>
      <point x="34" y="-33" type="curve" smooth="yes"/>
      <point x="34" y="-130"/>
      <point x="123" y="-229"/>
      <point x="230" y="-282" type="curve"/>
      <point x="251" y="-244" type="line"/>
      <point x="173" y="-190"/>
      <point x="119" y="-118"/>
      <point x="119" y="-42" type="curve" smooth="yes"/>
      <point x="119" y="14"/>
      <point x="148" y="34"/>
      <point x="194" y="34" type="curve" smooth="yes"/>
      <point x="237" y="34"/>
      <point x="281" y="15"/>
      <point x="324" y="-17" type="curve"/>
      <point x="350" y="7" type="line"/>
    </contour>
    <contour>
      <point x="630" y="-99"/>
      <point x="567" y="84"/>
      <point x="432" y="84" type="curve" smooth="yes"/>
      <point x="348" y="84"/>
      <point x="274" y="34"/>
      <point x="241" y="-68" type="curve"/>
      <point x="311" y="-97" type="line"/>
      <point x="345" y="-3"/>
      <point x="401" y="30"/>
      <point x="452" y="30" type="curve" smooth="yes"/>
      <point x="524" y="30"/>
      <point x="534" y="-74"/>
      <point x="403" y="-178" type="curve"/>
      <point x="455" y="-241" type="line"/>
    </contour>
    <contour>
      <point x="136" y="460" type="line"/>
      <point x="110" y="424" type="line"/>
      <point x="336" y="186" type="line"/>
      <point x="361" y="222" type="line"/>
    </contour>
    <contour>
      <point x="-30" y="570" type="line"/>
      <point x="-2" y="506" type="line"/>
      <point x="585" y="506" type="line"/>
      <point x="557" y="570" type="line"/>
    </contour>
    <contour>
      <point x="99" y="473"/>
      <point x="34" y="422"/>
      <point x="34" y="322" type="curve" smooth="yes"/>
      <point x="34" y="215"/>
      <point x="111" y="135"/>
      <point x="222" y="135" type="curve" smooth="yes"/>
      <point x="278" y="135"/>
      <point x="330" y="152"/>
      <point x="401" y="203" type="curve"/>
      <point x="401" y="286" type="line"/>
      <point x="349" y="231"/>
      <point x="265" y="202"/>
      <point x="188" y="202" type="curve" smooth="yes"/>
      <point x="135" y="202"/>
      <point x="85" y="228"/>
      <point x="85" y="294" type="curve" smooth="yes"/>
      <point x="85" y="353"/>
      <point x="120" y="398"/>
      <point x="198" y="398" type="curve" smooth="yes"/>
      <point x="250" y="398"/>
      <point x="326" y="377"/>
      <point x="409" y="319" type="curve"/>
      <point x="411" y="377" type="line"/>
      <point x="316" y="453"/>
      <point x="268" y="473"/>
      <point x="195" y="473" type="curve" smooth="yes"/>
    </contour>
    <contour>
      <point x="384" y="506" type="line"/>
      <point x="378" y="481"/>
      <point x="377" y="461"/>
      <point x="377" y="426" type="curve" smooth="yes"/>
      <point x="377" y="71" type="line"/>
      <point x="453" y="62" type="line"/>
      <point x="453" y="441" type="line" smooth="yes"/>
      <point x="453" y="477"/>
      <point x="466" y="506"/>
      <point x="502" y="506" type="curve"/>
    </contour>
    <contour>
      <point x="411" y="570" type="move" name="top"/>
    </contour>
    <contour>
      <point x="456" y="-220" type="move" name="bottom"/>
    </contour>
  </outline>
</glyph>
<glyph name="c_la-deva.loclMAR" format="1">
  <advance width="594"/>
  <note>
    dCLa.MAR
  </note>
  <outline>
    <contour>
      <point x="296" y="54"/>
      <point x="240" y="94"/>
      <point x="164" y="94" type="curve" smooth="yes"/>
      <point x="66" y="94"/>
      <point x="35" y="25"/>
      <point x="35" y="-33" type="curve" smooth="yes"/>
      <point x="35" y="-130"/>
      <point x="124" y="-229"/>
      <point x="231" y="-282" type="curve"/>
      <point x="252" y="-244" type="line"/>
      <point x="174" y="-190"/>
      <point x="120" y="-118"/>
      <point x="120" y="-42" type="curve" smooth="yes"/>
      <point x="120" y="14"/>
      <point x="149" y="34"/>
      <point x="195" y="34" type="curve" smooth="yes"/>
      <point x="238" y="34"/>
      <point x="282" y="15"/>
      <point x="325" y="-17" type="curve"/>
      <point x="351" y="7" type="line"/>
    </contour>
    <contour>
      <point x="631" y="-99"/>
      <point x="568" y="74"/>
      <point x="433" y="74" type="curve" smooth="yes"/>
      <point x="349" y="74"/>
      <point x="275" y="34"/>
      <point x="242" y="-68" type="curve"/>
      <point x="312" y="-97" type="line"/>
      <point x="346" y="-3"/>
      <point x="402" y="30"/>
      <point x="453" y="30" type="curve" smooth="yes"/>
      <point x="525" y="30"/>
      <point x="535" y="-74"/>
      <point x="404" y="-178" type="curve"/>
      <point x="456" y="-241" type="line"/>
    </contour>
    <contour>
      <point x="204" y="422"/>
      <point x="111" y="344"/>
      <point x="111" y="269" type="curve" smooth="yes"/>
      <point x="111" y="185"/>
      <point x="176" y="137"/>
      <point x="273" y="137" type="curve" smooth="yes"/>
      <point x="323" y="137"/>
      <point x="379" y="159"/>
      <point x="427" y="206" type="curve"/>
      <point x="427" y="336" type="line"/>
      <point x="389" y="238"/>
      <point x="316" y="187"/>
      <point x="248" y="187" type="curve" smooth="yes"/>
      <point x="204" y="187"/>
      <point x="184" y="213"/>
      <point x="184" y="246" type="curve" smooth="yes"/>
      <point x="184" y="303"/>
      <point x="246" y="383"/>
      <point x="353" y="388" type="curve"/>
      <point x="353" y="421" type="line"/>
    </contour>
    <contour>
      <point x="55" y="452" type="line"/>
      <point x="83" y="388" type="line"/>
      <point x="334" y="402" type="line"/>
      <point x="344" y="388" type="line"/>
      <point x="371" y="388" type="line"/>
      <point x="344" y="452" type="line"/>
    </contour>
    <contour>
      <point x="-30" y="570" type="line"/>
      <point x="-2" y="506" type="line"/>
      <point x="624" y="506" type="line"/>
      <point x="596" y="570" type="line"/>
    </contour>
    <contour>
      <point x="425" y="506" type="line"/>
      <point x="419" y="481"/>
      <point x="418" y="461"/>
      <point x="418" y="426" type="curve" smooth="yes"/>
      <point x="418" y="64" type="line"/>
      <point x="494" y="47" type="line"/>
      <point x="494" y="441" type="line" smooth="yes"/>
      <point x="494" y="477"/>
      <point x="507" y="506"/>
      <point x="543" y="506" type="curve"/>
    </contour>
    <contour>
      <point x="466" y="570" type="move" name="top"/>
    </contour>
  </outline>
</glyph>
<glyph name="ch-deva" format="1">
  <advance width="634"/>
  <outline>
    <contour>
      <point x="-30" y="570" type="line"/>
      <point x="-2" y="506" type="line"/>
      <point x="664" y="506" type="line"/>
      <point x="636" y="570" type="line"/>
    </contour>
    <contour>
      <point x="421" y="414"/>
      <point x="372" y="379"/>
      <point x="372" y="314" type="curve" smooth="yes"/>
      <point x="372" y="218"/>
      <point x="473" y="161"/>
      <point x="569" y="134" type="curve"/>
      <point x="584" y="164" type="line"/>
      <point x="492" y="207"/>
      <point x="455" y="256"/>
      <point x="455" y="311" type="curve" smooth="yes"/>
      <point x="455" y="351"/>
      <point x="474" y="369"/>
      <point x="501" y="369" type="curve" smooth="yes"/>
      <point x="539" y="369"/>
      <point x="573" y="333"/>
      <point x="573" y="260" type="curve" smooth="yes"/>
      <point x="573" y="122"/>
      <point x="416" y="36"/>
      <point x="297" y="36" type="curve" smooth="yes"/>
      <point x="211" y="36"/>
      <point x="167" y="69"/>
      <point x="167" y="120" type="curve" smooth="yes"/>
      <point x="167" y="174"/>
      <point x="222" y="212"/>
      <point x="321" y="197" type="curve"/>
      <point x="312" y="255" type="line"/>
      <point x="180" y="278"/>
      <point x="114" y="226"/>
      <point x="114" y="144" type="curve" smooth="yes"/>
      <point x="114" y="64"/>
      <point x="185" y="-26"/>
      <point x="327" y="-26" type="curve" smooth="yes"/>
      <point x="482" y="-26"/>
      <point x="642" y="86"/>
      <point x="642" y="244" type="curve" smooth="yes"/>
      <point x="642" y="349"/>
      <point x="574" y="414"/>
      <point x="484" y="414" type="curve" smooth="yes"/>
    </contour>
    <contour>
      <point x="103" y="461"/>
      <point x="49" y="402"/>
      <point x="49" y="337" type="curve" smooth="yes"/>
      <point x="49" y="283"/>
      <point x="87" y="224"/>
      <point x="167" y="192" type="curve"/>
      <point x="190" y="228" type="line"/>
      <point x="129" y="250"/>
      <point x="103" y="274"/>
      <point x="103" y="317" type="curve" smooth="yes"/>
      <point x="103" y="374"/>
      <point x="182" y="425"/>
      <point x="298" y="388" type="curve"/>
      <point x="279" y="450" type="line"/>
      <point x="252" y="458"/>
      <point x="228" y="461"/>
      <point x="203" y="461" type="curve" smooth="yes"/>
    </contour>
  </outline>
</glyph>
<glyph name="d_ma-deva" format="1">
  <advance width="637"/>
  <note>
    dDMa
  </note>
  <outline>
    <contour>
      <point x="667" y="506" type="line"/>
      <point x="639" y="570" type="line"/>
      <point x="-30" y="570" type="line"/>
      <point x="-2" y="506" type="line"/>
    </contour>
    <contour>
      <point x="530" y="184" type="line"/>
      <point x="323" y="184" type="line"/>
      <point x="323" y="298" type="line"/>
      <point x="244" y="298" type="line"/>
      <point x="244" y="120" type="line"/>
      <point x="530" y="130" type="line"/>
    </contour>
    <contour>
      <point x="323" y="394" type="line"/>
      <point x="254" y="451" type="line"/>
      <point x="157" y="452" type="line" smooth="yes"/>
      <point x="54" y="453"/>
      <point x="1" y="395"/>
      <point x="24" y="324" type="curve" smooth="yes"/>
      <point x="49" y="245"/>
      <point x="141" y="235"/>
      <point x="273" y="235" type="curve"/>
      <point x="267" y="298" type="line"/>
      <point x="120" y="298"/>
      <point x="81" y="311"/>
      <point x="74" y="341" type="curve" smooth="yes"/>
      <point x="67" y="373"/>
      <point x="98" y="390"/>
      <point x="159" y="391" type="curve" smooth="yes"/>
    </contour>
    <contour>
      <point x="254" y="506" type="line"/>
      <point x="248" y="481"/>
      <point x="247" y="461"/>
      <point x="247" y="426" type="curve" smooth="yes"/>
      <point x="247" y="393" type="line"/>
      <point x="323" y="394" type="line"/>
      <point x="323" y="441" type="line" smooth="yes"/>
      <point x="323" y="477"/>
      <point x="336" y="506"/>
      <point x="372" y="506" type="curve"/>
    </contour>
    <component base="deva_knot" xOffset="130" yOffset="-139"/>
    <component base="stem-deva" xOffset="126"/>
    <contour>
      <point x="528" y="570" type="move" name="top"/>
    </contour>
    <contour>
      <point x="522" y="0" type="move" name="bottom"/>
    </contour>
  </outline>
</glyph>
<glyph name="da_uMatra-deva" format="1">
  <advance width="529"/>
  <note>
    dDMatraU
  </note>
  <outline>
    <contour>
      <point x="356" y="120" type="line"/>
      <point x="371" y="-19" type="line"/>
      <point x="448" y="-50" type="line"/>
      <point x="407" y="130" type="line"/>
    </contour>
    <contour>
      <point x="336" y="441" type="line"/>
      <point x="266" y="445" type="line" smooth="yes"/>
      <point x="154" y="451"/>
      <point x="63" y="390"/>
      <point x="63" y="289" type="curve" smooth="yes"/>
      <point x="63" y="188"/>
      <point x="153" y="81"/>
      <point x="299" y="81" type="curve" smooth="yes"/>
      <point x="370" y="81"/>
      <point x="491" y="117"/>
      <point x="491" y="199" type="curve" smooth="yes"/>
      <point x="491" y="241"/>
      <point x="456" y="267"/>
      <point x="424" y="267" type="curve" smooth="yes"/>
      <point x="385" y="267"/>
      <point x="333" y="234"/>
      <point x="353" y="161" type="curve"/>
      <point x="324" y="145"/>
      <point x="295" y="136"/>
      <point x="261" y="136" type="curve" smooth="yes"/>
      <point x="191" y="136"/>
      <point x="136" y="187"/>
      <point x="136" y="251" type="curve" smooth="yes"/>
      <point x="136" y="328"/>
      <point x="184" y="369"/>
      <point x="265" y="373" type="curve" smooth="yes"/>
      <point x="412" y="380" type="line"/>
      <point x="412" y="409" type="line"/>
    </contour>
    <contour>
      <point x="559" y="506" type="line"/>
      <point x="531" y="570" type="line"/>
      <point x="-30" y="570" type="line"/>
      <point x="-2" y="506" type="line"/>
    </contour>
    <contour>
      <point x="340" y="506" type="line"/>
      <point x="334" y="481"/>
      <point x="333" y="461"/>
      <point x="333" y="426" type="curve" smooth="yes"/>
      <point x="333" y="405" type="line"/>
      <point x="412" y="386" type="line"/>
      <point x="412" y="441" type="line" smooth="yes"/>
      <point x="412" y="477"/>
      <point x="425" y="506"/>
      <point x="461" y="506" type="curve"/>
    </contour>
    <component base="uMatra-deva" xOffset="254"/>
    <contour>
      <point x="375" y="570" type="move" name="top"/>
    </contour>
  </outline>
</glyph>
<glyph name="iMatra-deva.03" format="1">
  <advance width="238"/>
  <note>
    dMatraI.3
  </note>
  <outline>
    <contour>
      <point x="175" y="555" type="line"/>
      <point x="147" y="601"/>
      <point x="129" y="645"/>
      <point x="129" y="681" type="curve" smooth="yes"/>
      <point x="129" y="729"/>
      <point x="161" y="762"/>
      <point x="243" y="762" type="curve" smooth="yes"/>
      <point x="354" y="763"/>
      <point x="506" y="706"/>
      <point x="646" y="610" type="curve"/>
      <point x="672" y="645" type="line"/>
      <point x="570" y="720"/>
      <point x="380" y="835"/>
      <point x="210" y="835" type="curve" smooth="yes"/>
      <point x="98" y="835"/>
      <point x="50" y="788"/>
      <point x="50" y="721" type="curve" smooth="yes"/>
      <point x="50" y="670"/>
      <point x="79" y="608"/>
      <point x="128" y="546" type="curve"/>
    </contour>
    <component base="aaMatra-deva"/>
    <contour>
      <point x="672" y="645" type="move" name="imatra"/>
    </contour>
    <contour>
      <point x="660" y="628" type="move" name="top"/>
    </contour>
  </outline>
</glyph>
<glyph name="j_ja-deva.alt" format="1">
  <advance width="686"/>
  <note>
    dJJa.alt
  </note>
  <outline>
    <component base="j_j-deva.alt"/>
    <component base="aaMatra-deva" xOffset="406"/>
    <contour>
      <point x="552" y="570" type="move" name="top"/>
    </contour>
    <contour>
      <point x="553" y="0" type="move" name="bottom"/>
    </contour>
  </outline>
</glyph>
<glyph name="k-deva" format="1">
  <advance width="508"/>
  <outline>
    <contour>
      <point x="628" y="379" type="line"/>
      <point x="599" y="408"/>
      <point x="574" y="425"/>
      <point x="531" y="425" type="curve" smooth="yes"/>
      <point x="474" y="425"/>
      <point x="409" y="391"/>
      <point x="365" y="326" type="curve"/>
      <point x="365" y="244" type="line"/>
      <point x="427" y="318"/>
      <point x="495" y="358"/>
      <point x="546" y="358" type="curve" smooth="yes"/>
      <point x="567" y="358"/>
      <point x="585" y="351"/>
      <point x="598" y="337" type="curve"/>
    </contour>
    <contour>
      <point x="578" y="506" type="line"/>
      <point x="550" y="570" type="line"/>
      <point x="-30" y="570" type="line"/>
      <point x="-2" y="506" type="line"/>
    </contour>
    <contour>
      <point x="292" y="421"/>
      <point x="240" y="443"/>
      <point x="171" y="443" type="curve" smooth="yes"/>
      <point x="80" y="443"/>
      <point x="11" y="396"/>
      <point x="11" y="291" type="curve" smooth="yes"/>
      <point x="11" y="192"/>
      <point x="82" y="115"/>
      <point x="166" y="115" type="curve" smooth="yes"/>
      <point x="237" y="115"/>
      <point x="318" y="160"/>
      <point x="372" y="249" type="curve"/>
      <point x="372" y="342" type="line"/>
      <point x="328" y="246"/>
      <point x="229" y="181"/>
      <point x="157" y="181" type="curve" smooth="yes"/>
      <point x="101" y="181"/>
      <point x="63" y="202"/>
      <point x="63" y="266" type="curve" smooth="yes"/>
      <point x="63" y="337"/>
      <point x="115" y="368"/>
      <point x="175" y="368" type="curve" smooth="yes"/>
      <point x="236" y="368"/>
      <point x="286" y="352"/>
      <point x="336" y="319" type="curve"/>
      <point x="348" y="379" type="line"/>
    </contour>
    <component base="stem-deva" xOffset="-40"/>
    <contour>
      <point x="63" y="0" type="move" name="nukta"/>
    </contour>
  </outline>
</glyph>
<glyph name="k_ra-deva.loclNEP" format="1">
  <advance width="654"/>
  <outline>
    <contour>
      <point x="495" y="410"/>
      <point x="437" y="381"/>
      <point x="367" y="310" type="curve"/>
      <point x="376" y="233" type="line"/>
      <point x="439" y="295"/>
      <point x="516" y="338"/>
      <point x="569" y="338" type="curve" smooth="yes"/>
      <point x="612" y="338"/>
      <point x="630" y="316"/>
      <point x="630" y="279" type="curve" smooth="yes"/>
      <point x="630" y="221"/>
      <point x="587" y="133"/>
      <point x="496" y="98" type="curve"/>
      <point x="544" y="26" type="line"/>
      <point x="638" y="77"/>
      <point x="677" y="159"/>
      <point x="677" y="242" type="curve" smooth="yes"/>
      <point x="677" y="330"/>
      <point x="631" y="410"/>
      <point x="547" y="410" type="curve" smooth="yes"/>
    </contour>
    <contour>
      <point x="656" y="570" type="line"/>
      <point x="-30" y="570" type="line"/>
      <point x="-2" y="506" type="line"/>
      <point x="684" y="506" type="line"/>
    </contour>
    <contour>
      <point x="338" y="304" type="line"/>
      <point x="55" y="84" type="line"/>
      <point x="113" y="23" type="line"/>
      <point x="338" y="225" type="line"/>
    </contour>
    <contour>
      <point x="219" y="387"/>
      <point x="167" y="430"/>
      <point x="87" y="430" type="curve" smooth="yes"/>
      <point x="47" y="430"/>
      <point x="9" y="418"/>
      <point x="-27" y="396" type="curve"/>
      <point x="6" y="325" type="line"/>
      <point x="36" y="339"/>
      <point x="71" y="348"/>
      <point x="112" y="348" type="curve" smooth="yes"/>
      <point x="179" y="348"/>
      <point x="220" y="325"/>
      <point x="315" y="266" type="curve"/>
      <point x="339" y="300" type="line"/>
    </contour>
    <component base="stem-deva" xOffset="-48"/>
    <contour>
      <point x="339" y="570" type="move" name="top"/>
    </contour>
    <contour>
      <point x="339" y="0" type="move" name="bottom"/>
    </contour>
  </outline>
</glyph>
<glyph name="m_la-deva.loclMAR" format="1">
  <advance width="527"/>
  <note>
    dMLa.MAR
  </note>
  <outline>
    <contour>
      <point x="272" y="54"/>
      <point x="216" y="94"/>
      <point x="140" y="94" type="curve" smooth="yes"/>
      <point x="42" y="94"/>
      <point x="11" y="25"/>
      <point x="11" y="-33" type="curve" smooth="yes"/>
      <point x="11" y="-130"/>
      <point x="100" y="-229"/>
      <point x="207" y="-282" type="curve"/>
      <point x="228" y="-244" type="line"/>
      <point x="150" y="-190"/>
      <point x="96" y="-118"/>
      <point x="96" y="-42" type="curve" smooth="yes"/>
      <point x="96" y="14"/>
      <point x="125" y="34"/>
      <point x="171" y="34" type="curve" smooth="yes"/>
      <point x="214" y="34"/>
      <point x="258" y="15"/>
      <point x="301" y="-17" type="curve"/>
      <point x="327" y="7" type="line"/>
    </contour>
    <contour>
      <point x="607" y="-99"/>
      <point x="544" y="84"/>
      <point x="409" y="84" type="curve" smooth="yes"/>
      <point x="325" y="84"/>
      <point x="251" y="34"/>
      <point x="218" y="-68" type="curve"/>
      <point x="288" y="-97" type="line"/>
      <point x="322" y="-3"/>
      <point x="378" y="30"/>
      <point x="429" y="30" type="curve" smooth="yes"/>
      <point x="501" y="30"/>
      <point x="511" y="-74"/>
      <point x="380" y="-178" type="curve"/>
      <point x="432" y="-241" type="line"/>
    </contour>
    <contour>
      <point x="114" y="270" type="line"/>
      <point x="390" y="280" type="line"/>
      <point x="390" y="334" type="line"/>
      <point x="193" y="334" type="line"/>
    </contour>
    <contour>
      <point x="557" y="506" type="line"/>
      <point x="529" y="570" type="line"/>
      <point x="-30" y="570" type="line"/>
      <point x="-2" y="506" type="line"/>
    </contour>
    <contour>
      <point x="381" y="506" type="line"/>
      <point x="375" y="481"/>
      <point x="374" y="461"/>
      <point x="374" y="426" type="curve" smooth="yes"/>
      <point x="374" y="71" type="line"/>
      <point x="450" y="62" type="line"/>
      <point x="450" y="441" type="line" smooth="yes"/>
      <point x="450" y="477"/>
      <point x="463" y="506"/>
      <point x="499" y="506" type="curve"/>
    </contour>
    <contour>
      <point x="124" y="506" type="line"/>
      <point x="118" y="481"/>
      <point x="117" y="461"/>
      <point x="117" y="426" type="curve" smooth="yes"/>
      <point x="117" y="301" type="line"/>
      <point x="193" y="292" type="line"/>
      <point x="193" y="441" type="line" smooth="yes"/>
      <point x="193" y="477"/>
      <point x="206" y="506"/>
      <point x="242" y="506" type="curve"/>
    </contour>
    <component base="deva_knot" yOffset="11"/>
    <contour>
      <point x="412" y="570" type="move" name="top"/>
    </contour>
    <contour>
      <point x="434" y="-180" type="move" name="bottom"/>
    </contour>
  </outline>
</glyph>
<glyph name="ng_gh_ra-deva" format="1">
  <advance width="614"/>
  <note>
    dNgGhRa
  </note>
  <outline>
    <contour>
      <point x="126" y="-283" type="line"/>
      <point x="168" y="-333" type="line"/>
      <point x="400" y="-162" type="line"/>
      <point x="375" y="-121" type="line"/>
    </contour>
    <component base="ng_gha-deva"/>
    <contour>
      <point x="402" y="570" type="move" name="top"/>
    </contour>
    <contour>
      <point x="417" y="-254" type="move" name="bottom"/>
    </contour>
  </outline>
</glyph>
<glyph name="p_ta-deva" format="1">
  <advance width="547"/>
  <note>
    dPTa
  </note>
  <outline>
    <contour>
      <point x="427" y="262" type="line"/>
      <point x="400" y="326" type="line"/>
      <point x="220" y="326" type="line" smooth="yes"/>
      <point x="122" y="326"/>
      <point x="59" y="279"/>
      <point x="59" y="202" type="curve" smooth="yes"/>
      <point x="59" y="125"/>
      <point x="110" y="46"/>
      <point x="235" y="-28" type="curve"/>
      <point x="262" y="-3" type="line"/>
      <point x="184" y="43"/>
      <point x="140" y="110"/>
      <point x="140" y="176" type="curve" smooth="yes"/>
      <point x="140" y="233"/>
      <point x="168" y="262"/>
      <point x="231" y="262" type="curve" smooth="yes"/>
    </contour>
    <contour>
      <point x="577" y="506" type="line"/>
      <point x="549" y="570" type="line"/>
      <point x="-30" y="570" type="line"/>
      <point x="-2" y="506" type="line"/>
    </contour>
    <contour>
      <point x="269" y="326" type="line"/>
      <point x="191" y="326"/>
      <point x="154" y="349"/>
      <point x="154" y="447" type="curve" smooth="yes"/>
      <point x="154" y="550" type="line"/>
      <point x="65" y="552" type="line"/>
      <point x="65" y="521" type="line" smooth="yes"/>
      <point x="65" y="354"/>
      <point x="146" y="272"/>
      <point x="265" y="272" type="curve"/>
    </contour>
    <component base="stem-deva" xOffset="26"/>
  </outline>
</glyph>
<glyph name="sh-deva" format="1">
  <advance width="478"/>
  <outline>
    <contour>
      <point x="-30" y="570" type="line"/>
      <point x="-2" y="506" type="line"/>
      <point x="78" y="506" type="line"/>
      <point x="50" y="570" type="line"/>
    </contour>
    <contour>
      <point x="390" y="570" type="line"/>
      <point x="418" y="506" type="line"/>
      <point x="508" y="506" type="line"/>
      <point x="480" y="570" type="line"/>
    </contour>
    <contour>
      <point x="172" y="60"/>
      <point x="234" y="-9"/>
      <point x="316" y="-70" type="curve"/>
      <point x="385" y="-2" type="line"/>
      <point x="300" y="40"/>
      <point x="214" y="78"/>
      <point x="159" y="194" type="curve"/>
      <point x="110" y="185" type="line"/>
    </contour>
    <contour>
      <point x="309" y="332" type="line"/>
      <point x="222" y="361"/>
      <point x="190" y="404"/>
      <point x="190" y="463" type="curve" smooth="yes"/>
      <point x="190" y="510"/>
      <point x="212" y="534"/>
      <point x="237" y="534" type="curve" smooth="yes"/>
      <point x="267" y="534"/>
      <point x="300" y="498"/>
      <point x="300" y="413" type="curve" smooth="yes"/>
      <point x="300" y="280"/>
      <point x="217" y="179"/>
      <point x="167" y="215" type="curve"/>
      <point x="185" y="233"/>
      <point x="181" y="309"/>
      <point x="111" y="309" type="curve" smooth="yes"/>
      <point x="81" y="309"/>
      <point x="60" y="285"/>
      <point x="60" y="252" type="curve" smooth="yes"/>
      <point x="60" y="200"/>
      <point x="114" y="154"/>
      <point x="171" y="154" type="curve" smooth="yes"/>
      <point x="254" y="154"/>
      <point x="380" y="257"/>
      <point x="380" y="409" type="curve" smooth="yes"/>
      <point x="380" y="509"/>
      <point x="311" y="570"/>
      <point x="224" y="570" type="curve" smooth="yes"/>
      <point x="147" y="570"/>
      <point x="108" y="529"/>
      <point x="108" y="469" type="curve" smooth="yes"/>
      <point x="108" y="378"/>
      <point x="210" y="314"/>
      <point x="300" y="294" type="curve"/>
    </contour>
  </outline>
</glyph>
<glyph name="stem-deva" format="1">
  <advance width="600"/>
  <outline>
    <contour>
      <point x="355" y="506" type="line"/>
      <point x="351" y="480"/>
      <point x="348" y="461"/>
      <point x="348" y="426" type="curve" smooth="yes"/>
      <point x="348" y="-20" type="line"/>
      <point x="427" y="-54" type="line"/>
      <point x="427" y="441" type="line" smooth="yes"/>
      <point x="427" y="477"/>
      <point x="440" y="506"/>
      <point x="476" y="506" type="curve"/>
    </contour>
  </outline>
</glyph>
<glyph name="stem-short-deva" format="1">
  <advance width="600"/>
  <outline>
    <contour>
      <point x="343" y="506" type="line"/>
      <point x="339" y="480"/>
      <point x="336" y="461"/>
      <point x="336" y="426" type="curve" smooth="yes"/>
      <point x="336" y="370" type="line"/>
      <point x="415" y="336" type="line"/>
      <point x="415" y="441" type="line" smooth="yes"/>
      <point x="415" y="477"/>
      <point x="428" y="506"/>
      <point x="464" y="506" type="curve"/>
    </contour>
  </outline>
</glyph>
<glyph name="stem-tiny-deva" format="1">
  <advance width="600"/>
  <outline>
    <contour>
      <point x="346" y="506" type="line"/>
      <point x="340" y="481"/>
      <point x="339" y="461"/>
      <point x="339" y="426" type="curve" smooth="yes"/>
      <point x="339" y="409" type="line"/>
      <point x="415" y="381" type="line"/>
      <point x="415" y="441" type="line" smooth="yes"/>
      <point x="415" y="477"/>
      <point x="428" y="506"/>
      <point x="464" y="506" type="curve"/>
    </contour>
  </outline>
</glyph>
